<?xml version="1.0" standalone="no"?>
<!DOCTYPE svg PUBLIC "-//W3C//DTD SVG 20010904//EN"
 "http://www.w3.org/TR/2001/REC-SVG-20010904/DTD/svg10.dtd">
<svg version="1.0" xmlns="http://www.w3.org/2000/svg"
 width="512.000000pt" height="512.000000pt" viewBox="0 0 512.000000 512.000000"
 preserveAspectRatio="xMidYMid meet">

<g transform="translate(0.000000,512.000000) scale(0.100000,-0.100000)"
fill="#FFB742" stroke="none">
<path d="M628 5110 c-314 -54 -569 -317 -618 -637 -7 -46 -10 -676 -8 -1963 4
-2066 -1 -1911 58 -2050 73 -172 229 -328 400 -400 140 -59 -16 -54 2050 -58
1287 -2 1917 1 1963 8 291 45 520 243 618 535 l24 70 3 1895 c2 1286 -1 1917
-8 1963 -45 291 -243 520 -535 618 l-70 24 -1915 1 c-1053 1 -1936 -2 -1962
-6z m3352 -920 c70 -36 80 -70 80 -280 0 -161 -2 -185 -20 -220 -37 -72 -48
-74 -370 -80 -323 -6 -339 -9 -420 -90 -83 -83 -85 -90 -88 -472 l-3 -338 446
0 c488 0 477 1 528 -60 15 -17 29 -45 32 -63 7 -38 -74 -374 -100 -414 -9 -13
-35 -33 -58 -44 -39 -17 -71 -19 -444 -19 l-403 0 0 -695 c0 -678 -1 -697 -20
-735 -36 -70 -70 -80 -280 -80 -210 0 -244 10 -280 80 -19 38 -20 57 -20 735
l0 695 -315 0 c-297 0 -318 1 -355 20 -70 36 -80 70 -80 280 0 210 10 244 80
280 37 19 58 20 354 20 l314 0 4 373 c4 346 6 378 26 452 78 282 285 511 554
615 128 50 203 58 516 59 265 1 285 0 322 -19z"/>
</g>
</svg>
