<?xml version="1.0" standalone="no"?>
<!DOCTYPE svg PUBLIC "-//W3C//DTD SVG 20010904//EN"
 "http://www.w3.org/TR/2001/REC-SVG-20010904/DTD/svg10.dtd">
<svg version="1.0" xmlns="http://www.w3.org/2000/svg"
 width="100.000000pt" height="155.000000pt" viewBox="0 0 140.000000 165.000000"
 preserveAspectRatio="xMidYMid meet">

<g transform="translate(0.000000,142.000000) scale(0.100000,-0.100000)"
fill="#9078b3" stroke="none">
<path d="M485 1315 c-88 -51 -221 -128 -295 -172 l-135 -79 0 -348 0 -348 113
-65 c62 -36 115 -64 117 -62 2 2 -2 33 -8 69 -11 57 -16 67 -47 86 -75 48 -70
25 -70 322 0 309 -13 270 120 349 221 130 360 204 377 201 17 -3 18 -30 21
-506 2 -392 5 -502 15 -502 6 0 33 14 60 30 l47 30 0 170 0 170 80 0 80 0 0
-120 c0 -66 4 -120 9 -120 5 0 29 12 55 26 l46 26 0 244 0 244 -52 30 -53 30
-5 -123 -5 -122 -75 0 -75 0 -3 271 c-2 201 -6 274 -15 282 -12 10 -138 83
-140 81 -1 0 -74 -42 -162 -94z"/>
<path d="M862 1219 l3 -64 121 -70 c67 -38 129 -76 138 -84 14 -12 16 -45 16
-280 0 -199 -3 -271 -12 -283 -13 -16 -463 -278 -478 -278 -5 0 -45 21 -89 47
-60 35 -81 53 -81 68 0 22 16 130 85 574 25 162 45 303 43 312 -3 16 -10 14
-58 -16 l-56 -34 -33 -238 c-18 -131 -35 -240 -37 -242 -10 -10 -16 16 -46
195 -17 104 -33 190 -34 192 -3 4 -73 -32 -97 -50 -17 -13 -15 -27 32 -293 27
-154 57 -326 67 -381 l17 -102 138 -81 c76 -44 142 -81 147 -81 6 0 142 76
304 169 l293 169 3 346 2 346 -37 23 c-62 39 -317 185 -336 193 -16 6 -18 1
-15 -57z"/>
</g>
</svg>
